 http://img80.imageshack.us/img80/4016/kungfupanda2a.jpg


Verenigde Staten
Animatie / Actie
90 minuten

geregisseerd door Jennifer Yuh
met de stemmen van Jack Black, Angelina Jolie en Dustin Hoffman

Po's droom is uitgekomen nu hij De Drakenkrijger is en de Vredesvallei beschermt samen met zijn vrienden en andere Kung Fu meesters, De Vurige Vijf - Tijger, Kraan, Mantis, Viper en Aap. Zijn heerlijke leventje verandert volledig als er een nare tegenstander met een geheim wapen China probeert te veroveren en Kung Fu wil uitroeien. Samen met De Vurige Vijf moet hij China doorkruisen om deze vijand te overmeesteren. Maar hoe kan Po een wapen ontmantelen dat Kung Fu vernietigt? Hij zal daarvoor eerst zijn mysterieuze verleden moeten ontrafelen om vervolgens de juiste krachten uit zichzelf te halen.



Nl subs, ENG en NL gesproken.




Screenshots:
 
http://www.hotimg.com/image/qPUbdkW 
http://www.hotimg.com/image/m4k9VmA 
http://www.hotimg.com/image/DwUF6ge 
http://www.hotimg.com/image/vDtTVa9




INFO;

Format                                   : Matroska
Format version                           : Version 2
File size                                : 2.59 GiB
Duration                                 : 1h 30mn
Overall bit rate                         : 4 097 Kbps
Encoded date                             : UTC 2012-01-13 21:05:19
Writing application                      : mkvmerge v5.2.1 ('A Far Off Place') built on Jan  2 2012 23:21:10
Writing library                          : libebml v1.2.3 + libmatroska v1.3.0

Video
ID                                       : 3
Format                                   : AVC
Format/Info                              : Advanced Video Codec
Format profile                           : High@L4.1
Format settings, CABAC                   : Yes
Format settings, ReFrames                : 5 frames
Muxing mode                              : Header stripping
Codec ID                                 : V_MPEG4/ISO/AVC
Duration                                 : 1h 30mn
Bit rate                                 : 2 816 Kbps
Width                                    : 1 280 pixels
Height                                   : 544 pixels
Display aspect ratio                     : 2.35:1
Frame rate                               : 23.976 fps
Color space                              : YUV
Chroma subsampling                       : 4:2:0
Bit depth                                : 8 bits
Scan type                                : Progressive
Bits/(Pixel*Frame)                       : 0.169
Stream size                              : 1.73 GiB (67%)
Title                                    : Video
Writing library                          : x264 core 118 r2085 8a62835
Language                                 : French
Default                                  : Yes
Forced                                   : Yes

Audio #1
ID                                       : 1
Format                                   : AC-3
Format/Info                              : Audio Coding 3
Mode extension                           : CM (complete main)
Muxing mode                              : Header stripping
Codec ID                                 : A_AC3
Duration                                 : 1h 30mn
Bit rate mode                            : Constant
Bit rate                                 : 640 Kbps
Channel(s)                               : 6 channels
Channel positions                        : Front: L C R, Side: L R, LFE
Sampling rate                            : 48.0 KHz
Bit depth                                : 16 bits
Compression mode                         : Lossy
Stream size                              : 414 MiB (16%)
Language                                 : Dutch
Default                                  : No
Forced                                   : No

Audio #2
ID                                       : 4
Format                                   : AC-3
Format/Info                              : Audio Coding 3
Mode extension                           : CM (complete main)
Muxing mode                              : Header stripping
Codec ID                                 : A_AC3
Duration                                 : 1h 30mn
Bit rate mode                            : Constant
Bit rate                                 : 640 Kbps
Channel(s)                               : 6 channels
Channel positions                        : Front: L C R, Side: L R, LFE
Sampling rate                            : 48.0 KHz
Bit depth                                : 16 bits
Compression mode                         : Lossy
Stream size                              : 414 MiB (16%)
Language                                 : English
Default                                  : Yes
Forced                                   : No

Text
ID                                       : 2
Format                                   : UTF-8
Codec ID                                 : S_TEXT/UTF8
Codec ID/Info                            : UTF-8 Plain Text
Language                                 : Dutch
Default                                  : Yes
Forced                                   : No




 
http://www.imdb.com/title/tt1302011/ 
http://www.moviemeter.nl/film/71651



Deze film wordt u aangeboden door het DutchReleaseTeam.
Voor de reviews van de nieuwste films, muziek, series, games etc
ga dan eens naar http://www.hetmultimediacafe.be/